<?xml version="1.0" encoding="UTF-8"?>
<svg xmlns="http://www.w3.org/2000/svg" xmlns:xlink="http://www.w3.org/1999/xlink" width="400px" height="400px" viewBox="0 0 400 400" version="1.1">
<defs>
<clipPath id="clip1">
  <path d="M 113.765625 378.957031 L 328.792969 378.957031 L 328.792969 400 L 113.765625 400 Z M 113.765625 378.957031 "/>
</clipPath>
<filter id="alpha" filterUnits="objectBoundingBox" x="0%" y="0%" width="100%" height="100%">
  <feColorMatrix type="matrix" in="SourceGraphic" values="0 0 0 0 1 0 0 0 0 1 0 0 0 0 1 0 0 0 1 0"/>
</filter>
<mask id="mask0">
  <g filter="url(#alpha)">
<rect x="0" y="0" width="400" height="400" style="fill:rgb(0%,0%,0%);fill-opacity:0.101961;stroke:none;"/>
  </g>
</mask>
<clipPath id="clip2">
  <rect x="0" y="0" width="400" height="400"/>
</clipPath>
<g id="surface5" clip-path="url(#clip2)">
<path style=" stroke:none;fill-rule:nonzero;fill:rgb(16.862745%,16.862745%,16.862745%);fill-opacity:1;" d="M 113.765625 392.566406 L 226.382812 400.25 L 328.792969 388.601562 L 228.542969 378.957031 Z M 113.765625 392.566406 "/>
</g>
</defs>
<g id="surface1">
<g clip-path="url(#clip1)" clip-rule="nonzero">
<use xlink:href="#surface5" mask="url(#mask0)"/>
</g>
<path style=" stroke:none;fill-rule:evenodd;fill:rgb(34.901961%,25.490196%,39.607843%);fill-opacity:1;" d="M 188.476562 393.621094 L 194.039062 384.566406 L 188.066406 369.386719 L 182.824219 377.140625 L 184.636719 393.621094 Z M 257.773438 385.644531 L 260.894531 373.660156 L 256.679688 365.808594 L 251.652344 361.292969 L 248.886719 370.617188 L 253.269531 385.644531 Z M 257.773438 385.644531 "/>
<path style=" stroke:none;fill-rule:evenodd;fill:rgb(92.54902%,92.54902%,92.156863%);fill-opacity:1;" d="M 237.523438 262.191406 L 295.65625 321.132812 L 251.054688 235.820312 L 241.046875 242.863281 Z M 237.523438 262.191406 "/>
<path style=" stroke:none;fill-rule:evenodd;fill:rgb(76.862745%,76.862745%,76.862745%);fill-opacity:1;" d="M 241.046875 258.472656 L 295.65625 321.132812 L 262.992188 351.65625 L 246.097656 305.066406 Z M 241.046875 258.472656 "/>
<path style=" stroke:none;fill-rule:evenodd;fill:rgb(56.078431%,56.078431%,56.078431%);fill-opacity:1;" d="M 144.464844 350.644531 L 262.992188 351.65625 L 252.695312 325.449219 L 169.03125 319.734375 Z M 144.464844 350.644531 "/>
<path style=" stroke:none;fill-rule:evenodd;fill:rgb(96.078431%,79.215686%,70.196078%);fill-opacity:1;" d="M 202.097656 368.28125 L 203.523438 330.617188 L 175.113281 330.613281 L 188.066406 369.386719 L 197.796875 378.121094 Z M 264.496094 358.28125 L 257.976562 330.613281 L 231.128906 330.613281 L 251.652344 361.292969 L 261.453125 373.171875 Z M 264.496094 358.28125 "/>
<path style=" stroke:none;fill-rule:evenodd;fill:rgb(76.862745%,57.647059%,49.019608%);fill-opacity:1;" d="M 257.976562 330.613281 L 237.523438 325.175781 L 231.128906 330.613281 L 236.5 338.640625 Z M 202.296875 362.984375 L 184.667969 359.222656 L 186.796875 365.582031 Z M 202.296875 362.984375 "/>
<path style=" stroke:none;fill-rule:evenodd;fill:rgb(47.058824%,36.470588%,53.333333%);fill-opacity:1;" d="M 251.652344 361.292969 L 264.496094 358.28125 L 292.59375 385.644531 L 266.160156 385.644531 Z M 188.066406 369.386719 L 202.097656 368.28125 L 215.59375 393.621094 L 188.476562 393.621094 Z M 188.066406 369.386719 "/>
<path style=" stroke:none;fill-rule:nonzero;fill:rgb(56.078431%,56.078431%,56.078431%);fill-opacity:1;" d="M 220.625 192.679688 L 241.046875 258.472656 L 251.054688 235.820312 L 254.417969 183.441406 Z M 220.625 192.679688 "/>
<path style=" stroke:none;fill-rule:evenodd;fill:rgb(70.196078%,53.333333%,61.568627%);fill-opacity:1;" d="M 111.09375 43.347656 L 96.867188 79.519531 L 66.726562 119.570312 L 76.742188 52.234375 Z M 111.09375 43.347656 "/>
<path style=" stroke:none;fill-rule:evenodd;fill:rgb(58.823529%,38.823529%,48.627451%);fill-opacity:1;" d="M 101.425781 193.972656 L 69.589844 171.792969 L 99.3125 162.875 L 110.476562 166.949219 Z M 111.09375 43.347656 L 66.726562 119.570312 L 109.046875 106.570312 Z M 111.09375 43.347656 "/>
<path style=" stroke:none;fill-rule:evenodd;fill:rgb(32.941176%,18.823529%,25.882353%);fill-opacity:1;" d="M 151.367188 139.921875 L 101.425781 193.972656 L 96.867188 120.707031 Z M 151.367188 139.921875 "/>
<path style=" stroke:none;fill-rule:evenodd;fill:rgb(45.098039%,29.803922%,37.254902%);fill-opacity:1;" d="M 66.726562 119.570312 L 96.863281 104.097656 L 119.597656 112.152344 L 140.613281 124.621094 L 151.367188 139.921875 Z M 66.726562 119.570312 "/>
<path style=" stroke:none;fill-rule:evenodd;fill:rgb(32.941176%,18.823529%,25.882353%);fill-opacity:1;" d="M 96.863281 104.097656 L 137.5625 125.640625 L 120.222656 98.667969 Z M 96.863281 104.097656 "/>
<path style=" stroke:none;fill-rule:evenodd;fill:rgb(47.058824%,36.470588%,53.333333%);fill-opacity:1;" d="M 175.113281 250.84375 L 218.414062 247.777344 L 238.855469 266.003906 L 257.976562 330.617188 L 203.523438 330.617188 Z M 175.113281 250.84375 "/>
<path style=" stroke:none;fill-rule:evenodd;fill:rgb(86.666667%,86.666667%,86.27451%);fill-opacity:1;" d="M 206.449219 146.894531 L 226.382812 197.210938 L 254.421875 183.441406 L 254.878906 176.285156 L 226.382812 143.679688 Z M 206.449219 146.894531 "/>
<path style=" stroke:none;fill-rule:evenodd;fill:rgb(100%,90.196078%,83.921569%);fill-opacity:1;" d="M 209.09375 22.632812 L 216.320312 27.757812 L 246.097656 110.636719 L 213.382812 124.933594 L 200.507812 165.714844 L 169.03125 148.511719 L 129.039062 100.472656 L 117.523438 33.777344 L 184.308594 3.519531 Z M 209.09375 22.632812 "/>
<path style=" stroke:none;fill-rule:evenodd;fill:rgb(96.078431%,79.215686%,70.196078%);fill-opacity:1;" d="M 200.507812 165.714844 L 206.179688 154.910156 L 203.917969 154.910156 L 188.292969 140.09375 L 155.082031 56.613281 L 142.917969 46.242188 L 117.523438 104.902344 L 137.558594 125.636719 L 143.082031 128.664062 L 151.367188 139.925781 L 169.03125 158.203125 L 183.089844 165.714844 Z M 200.507812 165.714844 "/>
<path style=" stroke:none;fill-rule:evenodd;fill:rgb(76.862745%,57.647059%,49.019608%);fill-opacity:1;" d="M 175.113281 141.746094 L 203.917969 154.910156 L 211.054688 141.644531 L 213.382812 124.9375 Z M 175.113281 141.746094 "/>
<path style=" stroke:none;fill-rule:nonzero;fill:rgb(70.196078%,53.333333%,61.568627%);fill-opacity:1;" d="M 113.765625 31.933594 L 126.382812 50.847656 L 142.917969 46.242188 L 179.25 33.28125 L 190.769531 20.507812 L 184.859375 0.277344 Z M 113.765625 31.933594 "/>
<path style=" stroke:none;fill-rule:evenodd;fill:rgb(76.862745%,57.647059%,49.019608%);fill-opacity:1;" d="M 137.5625 125.640625 L 143.476562 117.402344 L 151.367188 139.921875 Z M 137.5625 125.640625 "/>
<path style=" stroke:none;fill-rule:evenodd;fill:rgb(100%,90.196078%,83.921569%);fill-opacity:1;" d="M 137.5625 125.640625 L 147.121094 112.328125 L 125.058594 87.5 L 117.523438 104.902344 Z M 137.5625 125.640625 "/>
<path style=" stroke:none;fill-rule:evenodd;fill:rgb(76.862745%,57.647059%,49.019608%);fill-opacity:1;" d="M 127.460938 96.710938 L 136.113281 107.289062 L 121.867188 104.582031 Z M 127.460938 96.710938 "/>
<path style=" stroke:none;fill-rule:evenodd;fill:rgb(100%,100%,100%);fill-opacity:1;" d="M 152.554688 117.796875 L 148.21875 122.152344 L 138.992188 112.910156 L 143.5625 108.320312 Z M 152.554688 117.796875 "/>
<path style=" stroke:none;fill-rule:nonzero;fill:rgb(76.862745%,57.647059%,49.019608%);fill-opacity:1;" d="M 216.863281 86.035156 L 213.46875 92.65625 L 205.25 90.238281 Z M 216.863281 86.035156 "/>
<path style=" stroke:none;fill-rule:nonzero;fill:rgb(45.098039%,29.803922%,37.254902%);fill-opacity:1;" d="M 164.308594 60.859375 L 170.371094 59.746094 L 174.367188 54.773438 L 183.085938 54.773438 L 171.417969 52.007812 Z M 202.949219 49.101562 L 207.617188 47.542969 L 210.730469 40.1875 L 217.476562 40.1875 L 208.445312 37.589844 Z M 202.949219 49.101562 "/>
<path style=" stroke:none;fill-rule:nonzero;fill:rgb(34.901961%,25.490196%,39.607843%);fill-opacity:1;" d="M 187.59375 108.929688 L 199.613281 105.707031 L 210.210938 108.929688 L 203.917969 102.085938 L 199.882812 103.292969 L 197.734375 101.28125 Z M 187.59375 108.929688 "/>
<path style=" stroke:none;fill-rule:nonzero;fill:rgb(56.470588%,45.882353%,62.745098%);fill-opacity:1;" d="M 188.238281 108.753906 L 194.785156 111.074219 L 206.449219 107.785156 L 199.613281 105.707031 Z M 188.238281 108.753906 "/>
<path style=" stroke:none;fill-rule:nonzero;fill:rgb(96.078431%,79.215686%,70.196078%);fill-opacity:1;" d="M 226.023438 71.234375 L 214.253906 79.519531 L 210.917969 73.953125 Z M 173.699219 90.238281 L 203.324219 85.433594 L 203.171875 77.167969 Z M 166.785156 71.207031 L 191.710938 71.003906 L 188.644531 63.261719 Z M 220.246094 51.808594 L 213.382812 62.769531 L 210.210938 55.363281 Z M 220.246094 51.808594 "/>
<path style=" stroke:none;fill-rule:nonzero;fill:rgb(58.823529%,38.823529%,48.627451%);fill-opacity:1;" d="M 179.25 33.28125 L 209.09375 22.632812 L 184.859375 0.277344 Z M 179.25 33.28125 "/>
<path style=" stroke:none;fill-rule:evenodd;fill:rgb(45.098039%,29.803922%,37.254902%);fill-opacity:1;" d="M 125.058594 87.5 L 143.5625 108.320312 L 151.324219 96.855469 L 131.699219 72.15625 L 142.917969 46.242188 L 113.765625 31.933594 L 96.867188 104.097656 L 111.078125 104.652344 L 117.523438 104.902344 Z M 125.058594 87.5 "/>
<path style=" stroke:none;fill-rule:evenodd;fill:rgb(92.54902%,92.54902%,92.156863%);fill-opacity:1;" d="M 176.777344 184.035156 L 173.648438 198.695312 L 198.902344 210.917969 L 207.894531 206.429688 L 190.9375 185.386719 Z M 205.332031 150.5 L 232.449219 194.230469 L 243.15625 162.871094 Z M 205.332031 150.5 "/>
<path style=" stroke:none;fill-rule:evenodd;fill:rgb(76.862745%,76.862745%,76.862745%);fill-opacity:1;" d="M 226.382812 143.679688 L 262.109375 119.21875 L 294.746094 124.804688 L 254.878906 176.285156 Z M 226.382812 143.679688 "/>
<path style=" stroke:none;fill-rule:evenodd;fill:rgb(63.921569%,63.921569%,63.921569%);fill-opacity:1;" d="M 294.75 124.804688 L 298.183594 79.675781 L 285.570312 70.480469 L 262.109375 119.21875 Z M 294.75 124.804688 "/>
<path style=" stroke:none;fill-rule:evenodd;fill:rgb(92.54902%,92.54902%,92.156863%);fill-opacity:1;" d="M 282.871094 40.152344 L 272.445312 12.726562 L 262.210938 15.550781 L 267.433594 43.199219 L 256.6875 82.117188 L 265.546875 89.445312 L 286.496094 83.671875 L 307.441406 77.898438 L 311.296875 67.066406 Z M 282.871094 40.152344 "/>
<path style=" stroke:none;fill-rule:nonzero;fill:rgb(47.058824%,36.470588%,53.333333%);fill-opacity:1;" d="M 307.5625 67.960938 L 292.191406 53.410156 L 265.828125 61.105469 L 260.347656 80.964844 L 266.308594 85.898438 L 304.972656 75.242188 Z M 307.5625 67.960938 "/>
<path style=" stroke:none;fill-rule:evenodd;fill:rgb(100%,90.196078%,83.921569%);fill-opacity:1;" d="M 280.65625 42.53125 L 287.238281 27.285156 L 302 49.65625 L 300.429688 56.777344 L 292.171875 53.511719 Z M 280.65625 42.53125 "/>
<path style=" stroke:none;fill-rule:evenodd;fill:rgb(96.078431%,79.215686%,70.196078%);fill-opacity:1;" d="M 270.574219 39.96875 L 281.375 56.566406 L 292.171875 53.511719 L 287.238281 27.285156 Z M 270.574219 39.96875 "/>
<path style=" stroke:none;fill-rule:evenodd;fill:rgb(65.098039%,53.333333%,72.941176%);fill-opacity:1;" d="M 272.585938 77.9375 L 270.871094 81.640625 L 267.164062 79.921875 L 268.886719 76.21875 Z M 269.503906 72.230469 L 268.761719 73.824219 L 267.164062 73.085938 L 267.90625 71.488281 Z M 276.207031 76.960938 L 275.464844 78.554688 L 273.871094 77.8125 L 274.613281 76.21875 Z M 276.207031 71.800781 L 275.464844 73.394531 L 273.871094 72.652344 L 274.613281 71.058594 Z M 276.207031 71.800781 "/>
<path style=" stroke:none;fill-rule:evenodd;fill:rgb(56.470588%,45.882353%,62.745098%);fill-opacity:1;" d="M 206.179688 254.441406 L 257.976562 330.359375 L 241.046875 258.472656 L 224.246094 252.976562 Z M 206.179688 254.441406 "/>
<path style=" stroke:none;fill-rule:evenodd;fill:rgb(34.901961%,25.490196%,39.607843%);fill-opacity:1;" d="M 231.265625 217.609375 L 226.390625 197.25 L 202.296875 205.3125 L 206.1875 254.164062 L 206.449219 254.46875 L 241.046875 258.472656 Z M 231.265625 217.609375 "/>
<path style=" stroke:none;fill-rule:nonzero;fill:rgb(34.901961%,25.490196%,39.607843%);fill-opacity:1;" d="M 125.058594 87.5 L 121.070312 96.710938 L 117.523438 84.785156 L 159.722656 68.066406 L 164.308594 79.375 Z M 125.058594 87.5 "/>
<path style=" stroke:none;fill-rule:nonzero;fill:rgb(100%,94.509804%,90.980392%);fill-opacity:1;" d="M 216.863281 86.035156 L 205.25 90.238281 L 191.710938 56.4375 L 203.324219 52.234375 Z M 216.863281 86.035156 "/>
<path style=" stroke:none;fill-rule:nonzero;fill:rgb(34.901961%,25.490196%,39.607843%);fill-opacity:1;" d="M 235.105469 62.226562 L 215.980469 69.171875 L 210.386719 55.375 L 229.636719 48.414062 Z M 172.378906 85.007812 L 166.785156 71.207031 L 188.644531 63.261719 L 194.117188 77.070312 Z M 212.957031 75.988281 L 242.125 65.378906 L 232.703125 41.59375 L 159.722656 68.066406 L 169.355469 91.824219 L 201.136719 80.222656 L 193.695312 61.445312 L 205.324219 57.164062 Z M 212.957031 75.988281 "/>
<path style=" stroke:none;fill-rule:evenodd;fill:rgb(86.666667%,86.666667%,86.27451%);fill-opacity:1;" d="M 169.03125 158.199219 L 193.246094 189.09375 L 198.902344 210.917969 L 206.179688 254.4375 L 202.296875 362.984375 L 144.464844 350.644531 L 181.808594 247.777344 L 144.464844 182.703125 Z M 169.03125 158.199219 "/>
<path style=" stroke:none;fill-rule:evenodd;fill:rgb(76.862745%,76.862745%,76.862745%);fill-opacity:1;" d="M 206.179688 254.441406 L 144.464844 350.644531 L 175.113281 250.84375 L 191.710938 247.777344 Z M 206.179688 254.441406 "/>
<path style=" stroke:none;fill-rule:evenodd;fill:rgb(56.078431%,56.078431%,56.078431%);fill-opacity:1;" d="M 207.894531 206.460938 L 183.085938 210.917969 L 164.804688 227.925781 L 175.113281 250.84375 L 206.179688 254.441406 L 206.179688 254.4375 Z M 207.894531 206.460938 "/>
<path style=" stroke:none;fill-rule:evenodd;fill:rgb(92.54902%,92.54902%,92.156863%);fill-opacity:1;" d="M 169.03125 158.199219 L 163.484375 188.363281 L 193.246094 189.09375 L 184.769531 174.621094 Z M 169.03125 158.199219 "/>
<path style=" stroke:none;fill-rule:evenodd;fill:rgb(56.470588%,45.882353%,62.745098%);fill-opacity:1;" d="M 200.507812 165.714844 L 194.246094 176.285156 L 186.347656 180.292969 L 169.03125 158.203125 Z M 200.507812 165.714844 "/>
<path style=" stroke:none;fill-rule:evenodd;fill:rgb(34.901961%,25.490196%,39.607843%);fill-opacity:1;" d="M 200.542969 165.722656 L 200.507812 165.714844 L 186.347656 180.292969 L 193.25 189.09375 L 202.992188 180.820312 Z M 200.542969 165.722656 "/>
<path style=" stroke:none;fill-rule:evenodd;fill:rgb(63.921569%,63.921569%,63.921569%);fill-opacity:1;" d="M 144.464844 182.703125 L 164.800781 227.925781 L 232.449219 194.230469 L 213.382812 188.441406 L 193.25 189.09375 Z M 144.464844 182.703125 "/>
<path style=" stroke:none;fill-rule:evenodd;fill:rgb(76.862745%,76.862745%,76.862745%);fill-opacity:1;" d="M 232.441406 194.230469 L 226.382812 143.679688 L 219.074219 134.988281 L 210.210938 134.988281 L 193.25 189.09375 Z M 232.441406 194.230469 "/>
<path style=" stroke:none;fill-rule:evenodd;fill:rgb(96.078431%,79.215686%,70.196078%);fill-opacity:1;" d="M 210.210938 134.988281 L 218.066406 109.179688 L 232.078125 115.238281 L 238.855469 126.679688 L 226.382812 143.679688 Z M 210.210938 134.988281 "/>
<path style=" stroke:none;fill-rule:evenodd;fill:rgb(96.078431%,79.215686%,70.196078%);fill-opacity:1;" d="M 218.066406 109.179688 L 236.714844 103.558594 L 246.097656 110.636719 L 234.632812 114.867188 Z M 218.066406 109.179688 "/>
<path style=" stroke:none;fill-rule:evenodd;fill:rgb(100%,90.196078%,83.921569%);fill-opacity:1;" d="M 218.066406 109.179688 L 246.097656 110.636719 L 247.886719 123.441406 L 238.855469 126.679688 Z M 218.066406 109.179688 "/>
<path style=" stroke:none;fill-rule:evenodd;fill:rgb(16.862745%,16.862745%,16.862745%);fill-opacity:1;" d="M 189.125 73.40625 C 189.125 75.210938 187.660156 76.675781 185.855469 76.675781 C 184.046875 76.675781 182.582031 75.210938 182.582031 73.40625 C 182.582031 71.601562 184.046875 70.136719 185.855469 70.136719 C 187.660156 70.136719 189.125 71.601562 189.125 73.40625 M 225.109375 60.082031 C 225.109375 61.886719 223.644531 63.351562 221.839844 63.351562 C 220.03125 63.351562 218.566406 61.886719 218.566406 60.082031 C 218.566406 58.273438 220.03125 56.808594 221.839844 56.808594 C 223.644531 56.808594 225.109375 58.273438 225.109375 60.082031 "/>
</g>
</svg>
